<?xml version="1.0" encoding="UTF-8"?>
<svg version="1.1" viewBox="0 0 527.27 563.74" xml:space="preserve" xmlns="http://www.w3.org/2000/svg"><defs><clipPath id="a"><path d="m0 792h612v-792h-612z"/></clipPath></defs><g transform="matrix(1.3333 0 0 -1.3333 -148.77 817.01)" fill="#fff"><g><g transform="matrix(.80073 0 0 -1 142.09 272.8)" aria-label="PET"><path d="m45.843-43.945q0 8.9409-6.073 13.706-6.073 4.7656-17.207 4.7656h-9.5313v25.473h-4.3017v-61.658h15.098q22.015 0 22.015 17.713zm-32.811 14.761h8.4769q10.417 0 15.056-3.4161 4.6391-3.4583 4.6391-11.176 0-7.1274-4.3861-10.543-4.3861-3.4583-13.58-3.4583h-10.206z"/><path d="m89.5 0h-33.697v-61.658h33.697v3.9643h-29.395v23.322h27.75v3.9643h-27.75v26.443h29.395z"/><path d="m116.09 0h-4.3439v-57.609h-20.033v-4.0487h44.409v4.0487h-20.033z"/></g><g transform="matrix(.90082 0 0 -1 248.64 272.8)" aria-label="COMP"><path d="m33.95-51.663q-7.3804 0-11.429 5.5669-4.0487 5.5248-4.0487 15.436 0 20.623 15.478 20.623 6.4948 0 15.731-3.2474v10.965q-7.5913 3.163-16.954 3.163-13.453 0-20.581-8.1395-7.1274-8.1817-7.1274-23.449 0-9.6156 3.5004-16.827 3.5004-7.2539 10.037-11.092 6.5791-3.88 15.393-3.88 8.983 0 18.05 4.3439l-4.2174 10.628q-3.4583-1.6448-6.9587-2.8678-3.5004-1.223-6.8743-1.223z"/><path d="m115.29-30.913q0 15.309-7.5913 23.533-7.5913 8.2239-21.762 8.2239-14.17 0-21.762-8.2239-7.5913-8.2239-7.5913-23.617 0-15.393 7.5913-23.491 7.6335-8.1395 21.846-8.1395 14.213 0 21.72 8.1817 7.5491 8.1817 7.5491 23.533zm-44.999 0q0 10.333 3.9222 15.562t11.724 5.2296q15.646 0 15.646-20.792 0-20.834-15.562-20.834-7.8022 0-11.766 5.2717-3.9643 5.2296-3.9643 15.562z"/><path d="m150.73 0-14.845-48.373h-0.37956q0.8013 14.761 0.8013 19.695v28.678h-11.682v-61.658h17.797l14.592 47.15h0.25304l15.478-47.15h17.797v61.658h-12.188v-29.184q0-2.0665 0.0422-4.7656 0.0844-2.6991 0.59043-14.339h-0.37959l-15.9 48.289z"/><path d="m215.69-32.643h4.3017q6.0308 0 9.0252-2.3617 2.9943-2.4039 2.9943-6.9587 0-4.5969-2.5304-6.79-2.4883-2.193-7.8443-2.193h-5.9465zm29.522-9.7843q0 9.953-6.2417 15.225-6.1996 5.2717-17.671 5.2717h-5.6091v21.93h-13.074v-61.658h19.695q11.218 0 17.038 4.85 5.8622 4.8078 5.8622 14.381z"/></g><g transform="matrix(.9516 0 0 -1 280.71 227.86)" aria-label="ufc"><path d="m6.6508-21.956v14.243q0 2.6844 1.222 4.0065 1.222 1.3221 3.8262 1.3221 3.4456 0 5.0282-1.8831 1.6026-1.8831 1.6026-6.15v-11.539h3.3254v21.956h-2.7445l-0.48078-2.9448h-0.18029q-1.0217 1.6226-2.8446 2.484-1.8029 0.8614-4.1267 0.8614-4.0065 0-6.0098-1.9031-1.9832-1.9031-1.9832-6.0899v-14.363z"/><path d="m36.561-19.371h-5.5891v19.371h-3.3254v-19.371h-3.9264v-1.5024l3.9264-1.202v-1.222q0-8.0932 7.0715-8.0932 1.7428 0 4.0866 0.70114l-0.8614 2.6643q-1.9231-0.62101-3.2853-0.62101-1.8831 0-2.7845 1.2621-0.90147 1.242-0.90147 4.0065v1.4223h5.5891z"/><path d="m47.296 0.40065q-4.7678 0-7.392-2.9248-2.6042-2.9448-2.6042-8.3135 0-5.509 2.6443-8.5138 2.6643-3.0049 7.5723-3.0049 1.5826 0 3.1651 0.34055t2.484 0.8013l-1.0217 2.8246q-1.1018-0.44072-2.4039-0.72117-1.3021-0.30049-2.3037-0.30049-6.6909 0-6.6909 8.5339 0 4.0466 1.6226 6.2101 1.6427 2.1635 4.8479 2.1635 2.7445 0 5.6292-1.1819v2.9448q-2.2036 1.1419-5.549 1.1419z"/></g></g><g clip-path="url(#a)" fill="#fff"><g transform="translate(392.27 460.64)"><path d="m0 0c-51.021 56.27-101.29 16.807-108.65 12.804-7.361-4.007 30.241 8.067 44.465-20.878 13.11-26.675-12.746-57.384 7.199-81.587 12.52-15.189 38.764-28.003 63.999-3.593 21.949 21.238 14.175 69.892-7.011 93.254" fill="#fff" fill-rule="evenodd"/></g><g transform="translate(326.12 447.55)"><path d="m0 0c-0.529 8.368-5.443-30.853-37.671-31.555-29.686-0.65-46.6 35.772-76.933 27.872-19.041-4.954-41.719-23.376-30.244-56.567 9.977-28.878 57.335-42.342 87.433-32.963 72.484 22.58 57.935 84.845 57.415 93.213" fill="#fff" fill-rule="evenodd"/></g><g transform="translate(309.76 574.06)"><path d="m0 0c-29.514 7.82-67.097-24.009-76.114-54.24-21.727-72.81 38.018-95.462 45.252-99.698 7.23-4.235-22.545 21.734-5.15 48.89 16.026 25.026 55.658 18.757 66.039 48.361 6.51 18.581 3.894 47.701-30.027 56.687" fill="#fff" fill-rule="evenodd"/></g></g></g></svg>
